{"title":"R.I.P.D.2013.CAM.x264.EwSaDe","uid":8754713,"size":1256135206,"categoryP":"video","categoryS":"movies","magnet":"?xt=urn:btih:1cea57d248191fca2bd1a7217b73bf4c217707c1&amp;dn=R.I.P.D.2013.CAM.x264.EwSaDe&amp;tr=udp%3A%2F%2Ftracker.openbittorrent.com%3A80&amp;tr=udp%3A%2F%2Fopen.demonii.com%3A1337&amp;tr=udp%3A%2F%2Ftracker.coppersurfer.tk%3A6969&amp;tr=udp%3A%2F%2Fexodus.desync.com%3A6969","seeders":3,"leechers":0,"uploader":"xxxlavalxxx","files":-1,"time":1375121386,"description":" &lt;a href=&quot;http://www.imdb.com/title/tt0790736/&quot; rel=&quot;nofollow&quot; target=&quot;_NEW&quot;&gt;http://www.imdb.com/title/tt0790736/&lt;/a&gt;\n\n\nA recently slain cop joins a team of undead police officers working for the Rest in Peace Department and tries to find the man who murdered him. \n\n\n\nDirector:\n Robert Schwentke \n\nWriters:\n Phil Hay (screenplay), Matt Manfredi (screenplay) \n\nStars:\n Jeff Bridges, Ryan Reynolds, Kevin Bacon\n\nGenres:\n  Action |  Comedy |  Crime |  Fantasy \n\nCountry:\n USA \n\n\n\nEncoder ..........::hmmm:                                                    \n Video Codec.......:AVC \n Video Bitrate.....1 925 Kbps                         \n Audio Codec.......:MPEG Audio                             \n Audio Bitrate.....:128 Kbps                          \n Resolution........:720x368\n Runtime...........:1h 26mn                              \n Release Date......:29/07/13 \n Theatre Date......: 19 July 2013 (USA)\n Language..........:English \n Subtitles.........:N/A\n IMDB Rating.......:5.5\n IMDb URL..........:http://www.imdb.com/title/tt0790736\n\n _______________________________________________________________________________\n\nGeneral\n Complete name                            :\n Format                                   : MPEG-4\n Format profile                           : Base Media\n Codec ID                                 : isom\n File size                                : 1.16 GiB\n Duration                                 : 1h 26mn\n Overall bit rate                         : 1 925 Kbps\n Encoded date                             : UTC 2013-07-29 07:54:07\n Tagged date                              : UTC 2013-07-29 07:54:07\n\n\n ________________________________________________________________________________\n\n\n Video\n ID                                       : 1\n Format                                   : AVC\n Format/Info                              : Advanced Video Codec\n Format profile                           : &lt;a class=&quot;__cf_email__&quot; href=&quot;/cdn-cgi/l/email-protection&quot; data-cfemail=&quot;165e7f717e565a253827&quot;&gt;[email&amp;#160;protected]&lt;/a&gt;&lt;script cf-hash='f9e31' type=&quot;text/javascript&quot;&gt;\n/* &lt;![CDATA[ */!function(){try{var t=&quot;currentScript&quot;in document?document.currentScript:function(){for(var t=document.getElementsByTagName(&quot;script&quot;),e=t.length;e--;)if(t[e].getAttribute(&quot;cf-hash&quot;))return t[e]}();if(t&amp;&amp;t.previousSibling){var e,r,n,i,c=t.previousSibling,a=c.getAttribute(&quot;data-cfemail&quot;);if(a){for(e=&quot;&quot;,r=parseInt(a.substr(0,2),16),n=2;a.length-n;n+=2)i=parseInt(a.substr(n,2),16)^r,e+=String.fromCharCode(i);e=document.createTextNode(e),c.parentNode.replaceChild(e,c)}}}catch(u){}}();/* ]]&gt; */&lt;/script&gt;\n Format settings, CABAC                   : Yes\n Format settings, ReFrames                : 4 frames\n Codec ID                                 : avc1\n Codec ID/Info                            : Advanced Video Coding\n Duration                                 : 1h 26mn\n Bit rate                                 : 1 794 Kbps\n Maximum bit rate                         : 5 453 Kbps\n Width                                    : 720 pixels\n Height                                   : 368 pixels\n Display aspect ratio                     : 1.957\n Frame rate mode                          : Constant\n Frame rate                               : 29.970 fps\n Color space                              : YUV\n Chroma subsampling                       : 4:2:0\n Bit depth                                : 8 bits\n Scan type                                : Progressive\n Bits/(Pixel*Frame)                       : 0.226\n Stream size                              : 1.08 GiB (93%)\n Title                                    : 264#trackID=1:fps=&lt;a class=&quot;__cf_email__&quot; href=&quot;/cdn-cgi/l/email-protection&quot; data-cfemail=&quot;9aa8a3b4a3addaddcadbd9aab4afb4abb7dedfccb7e8ffecaea8a2a9&quot;&gt;[email&amp;#160;protected]&lt;/a&gt;&lt;script cf-hash='f9e31' type=&quot;text/javascript&quot;&gt;\n/* &lt;![CDATA[ */!function(){try{var t=&quot;currentScript&quot;in document?document.currentScript:function(){for(var t=document.getElementsByTagName(&quot;script&quot;),e=t.length;e--;)if(t[e].getAttribute(&quot;cf-hash&quot;))return t[e]}();if(t&amp;&amp;t.previousSibling){var e,r,n,i,c=t.previousSibling,a=c.getAttribute(&quot;data-cfemail&quot;);if(a){for(e=&quot;&quot;,r=parseInt(a.substr(0,2),16),n=2;a.length-n;n+=2)i=parseInt(a.substr(n,2),16)^r,e+=String.fromCharCode(i);e=document.createTextNode(e),c.parentNode.replaceChild(e,c)}}}catch(u){}}();/* ]]&gt; */&lt;/script&gt;\n Writing library                          : x264 core 133 r2334 a3ac64b\n Encoding settings                        : cabac=1 // deblock=1:-2:-2 / analyse=0x3:0x113 / me=hex / subme=7 / psy=1 / psy_rd=1.00:0.25 // me_range=16 / chroma_me=1 / trellis=1 / 8x8dct=1 / cqm=0 / deadzone=6,6 / fast_pskip=1 / chroma_qp_offset=-4 / threads=6 / lookahead_threads=1 / sliced_threads=0 / nr=0 / decimate=0 / interlaced=0 / bluray_compat=0 / constrained_intra=0 / bframes=3 / b_pyramid=2 / b_adapt=1 / b_bias=0 / direct=1 / weightb=1 / open_gop=0 / weightp=2 / keyint=300 / keyint_min=29 / scenecut=40 / intra_refresh=0 / rc_lookahead=40 / rc=2pass / mbtree=1 / bitrate=1794 / ratetol=1.0 / qcomp=0.80 / qpmin=0 / qpmax=69 / qpstep=4 / cplxblur=20.0 / qblur=0.5 / vbv_maxrate=17500 / vbv_bufsize=17500 / nal_hrd=none / ip_ratio=1.10 / aq=1:0.50\n Encoded date                             : UTC 2013-07-29 07:54:07\n Tagged date                              : UTC 2013-07-29 07:55:09\n\n _________________________________________________________________________________\n\n\n Audio\n ID                                       : 2\n Format                                   : MPEG Audio\n Format version                           : Version 1\n Format profile                           : Layer 3\n Mode                                     : Joint stereo\n Mode extension                           : MS Stereo\n Codec ID                                 : 6B\n Duration                                 : 1h 26mn\n Bit rate mode                            : Constant\n Bit rate                                 : 128 Kbps\n Maximum bit rate                         : 132 Kbps\n Channel(s)                               : 2 channels\n Sampling rate                            : 48.0 KHz\n Compression mode                         : Lossy\n Stream size                              : 78.8 MiB (7%)\n Title                                    : mp3#trackID=&lt;a class=&quot;__cf_email__&quot; href=&quot;/cdn-cgi/l/email-protection&quot; data-cfemail=&quot;6d5c2d2a3d2c2e5d4358435c4029283b401f081b595f555e&quot;&gt;[email&amp;#160;protected]&lt;/a&gt;&lt;script cf-hash='f9e31' type=&quot;text/javascript&quot;&gt;\n/* &lt;![CDATA[ */!function(){try{var t=&quot;currentScript&quot;in document?document.currentScript:function(){for(var t=document.getElementsByTagName(&quot;script&quot;),e=t.length;e--;)if(t[e].getAttribute(&quot;cf-hash&quot;))return t[e]}();if(t&amp;&amp;t.previousSibling){var e,r,n,i,c=t.previousSibling,a=c.getAttribute(&quot;data-cfemail&quot;);if(a){for(e=&quot;&quot;,r=parseInt(a.substr(0,2),16),n=2;a.length-n;n+=2)i=parseInt(a.substr(n,2),16)^r,e+=String.fromCharCode(i);e=document.createTextNode(e),c.parentNode.replaceChild(e,c)}}}catch(u){}}();/* ]]&gt; */&lt;/script&gt;\n Writing library                          : LAME3.99r\n Encoding settings                        : -m j -V 4 -q 2 -lowpass 17 -b 128\n Encoded date                             : UTC 2013-07-29 07:54:53\n Tagged date                              : UTC 2013-07-29 07:55:09\n\n _________________________________________________________________________________\n\n\nSOURCES:LittleBirdyThanks\n\n\n\n\nscreens\n\n\n    &lt;a href=&quot;\thttp://addpix.net/viewer.php?file=45443691537321823876.jpg&quot; rel=&quot;nofollow&quot; target=&quot;_NEW&quot;&gt;\thttp://addpix.net/viewer.php?file=45443691537321823876.jpg&lt;/a&gt;\n    &lt;a href=&quot;\thttp://addpix.net/viewer.php?file=14668572022922583533.jpg&quot; rel=&quot;nofollow&quot; target=&quot;_NEW&quot;&gt;\thttp://addpix.net/viewer.php?file=14668572022922583533.jpg&lt;/a&gt;\n    &lt;a href=&quot;\thttp://addpix.net/viewer.php?file=11973089725361377198.jpg&quot; rel=&quot;nofollow&quot; target=&quot;_NEW&quot;&gt;\thttp://addpix.net/viewer.php?file=11973089725361377198.jpg&lt;/a&gt;\n    &lt;a href=&quot;\thttp://addpix.net/viewer.php?file=08425182624977298608.jpg&quot; rel=&quot;nofollow&quot; target=&quot;_NEW&quot;&gt;\thttp://addpix.net/viewer.php?file=08425182624977298608.jpg&lt;/a&gt;\n","torrent":{"xt":"urn:btih:1cea57d248191fca2bd1a7217b73bf4c217707c1","amp;dn":"R.I.P.D.2013.CAM.x264.EwSaDe","amp;tr":["udp%3A%2F%2Ftracker.openbittorrent.com%3A80","udp%3A%2F%2Fopen.demonii.com%3A1337","udp%3A%2F%2Ftracker.coppersurfer.tk%3A6969","udp%3A%2F%2Fexodus.desync.com%3A6969"],"infoHash":"1cea57d248191fca2bd1a7217b73bf4c217707c1","infoHashBuffer":{"type":"Buffer","data":[28,234,87,210,72,25,31,202,43,209,167,33,123,115,191,76,33,119,7,193]},"announce":[],"urlList":[]}}